<svg xmlns="http://www.w3.org/2000/svg" width="232.564" height="99.165" viewBox="0 0 232.564 99.165">
  <path id="パス_1" data-name="パス 1" d="M36.75,31.1c-4.3,7.9-8.5,16.3-10.6,21.3-4.8,11.5.5,18.9,7.1,19.1,8,.3,14.6-8.5,15.9-11.4,1-2.3,1.5-4.1,1-5.7-.4-1.4-1.5-1.2-2.1,0-3.7,7.5-9.4,14.6-13.9,14.4-4.2-.2-5.3-6.4-2-13.7,3.8-8.4,9.5-18.1,13.4-24.8a29.837,29.837,0,0,1,7.8-.4c1.5,0,1.9-.7,1.2-1.9-.8-1.3-2.3-3.1-6.2-3,2.4-5.2,2.4-8.5,1.3-11.3-.5-1.2-1.5-1.3-2.4,0a128.5,128.5,0,0,0-7.6,12.4,57,57,0,0,1-8.3.4c-1.5-.1-2.1.6-1.1,2C31.05,29.6,33.35,31.1,36.75,31.1Zm47.5,29.2c1.7-2.6,2-4.9,1.8-5.8-.2-1-1.1-.9-1.6-.2a53.239,53.239,0,0,1-17.7,15.4c4.2-9.7,10.3-21.7,13.3-27.5,2.6-5.1,1.8-9.4.4-11.2-.9-.8-1.6-.6-2.5.7-3.5,5.1-7.8,14.1-12.1,21.5-5.1,8.7-10.1,15.1-14,14.8-2.3-.2-2.5-3.7-.5-8.6a91.281,91.281,0,0,1,7.7-14.6c3.7-5.9,4.3-10.1,1.9-13.3a1.385,1.385,0,0,0-2.5,0,106.7,106.7,0,0,0-13.6,25.3c-2.3,6.6-2.1,13.9,5.1,14.5,4,.3,7.8-2.3,10.9-5.5-1.1,2.4-2.1,4.9-3.1,7.2-9.9,3.9-18.4,9.9-21.4,18.9-2,5.9,0,9.4,2,12.4,1.9,2.8,3.8,2.8,5.7,2.1,8.3-3.2,15.4-19.3,21-32.7C73.35,70.3,80.35,66.5,84.25,60.3ZM56.05,77.2c-6.2,14.7-14.4,25.6-15.7,23.7C38.55,98.4,43.05,84.7,56.05,77.2Zm48-7.6c3.8-2.3,7.5-7.1,10.5-13.7,3.7-8.2,5.9-17.1,1.1-22.2-4.3-4.5-10.2-1.7-14.6,2.1a10.7,10.7,0,0,0-.6-4.5c-.5-1.2-1.4-1.4-2.4-.1-6.3,8.4-23.1,40.1-26.1,49.8-1.9,6.1-1.4,8.9.1,11,.6.9,1.3.7,1.7-.2,4.8-11.1,9.9-21.3,14.6-29.9a10.371,10.371,0,0,0,3.4,6.7c3.5,3.2,7.7,4.1,14.1,3.7,7.2-.5,14-3.8,17.8-10.7a9.965,9.965,0,0,0,1.3-6.6c-.2-1-1.3-1.4-1.9,0C119.85,61.8,113.85,69,104.05,69.6ZM93.95,51.9c1.2-2.1,2.3-3.9,3.4-5.7,4.7-7.7,10.9-12.7,13.3-11.5,2.5,1.2,1.4,9.5-2.5,17.5-4.7,9.6-11.2,16.9-14.4,14.3C90.95,64.2,91.45,58.2,93.95,51.9Zm37.3,1c7,5.7,13.7,3.1,18.6-2.9,4.2-5.1,5-11.2,3.2-13.6a18.607,18.607,0,0,0-5.9-5.2c-5-2.9-15.2,2.3-21.7,15.2s-2.1,25.4,10.6,25.2c7.7-.1,15.4-4.7,19.6-10.8,1.8-2.6,2.1-5.4,1.7-6.2-.4-.9-1.2-.9-1.7-.1-4.3,6.6-11.6,14.6-19.9,14.2C130.45,68.4,128.05,62.1,131.25,52.9Zm.9-2.2c.2-.5.5-1.1.8-1.7,4.7-9.5,13-15.5,15.1-13.8,1.4,1.1-.8,6.3-4,10.5C141.15,49.5,137.05,53.8,132.15,50.7Zm31.1,2.2c7,5.7,13.7,3.1,18.6-2.9,4.2-5.1,5-11.2,3.2-13.6a18.607,18.607,0,0,0-5.9-5.2c-5-2.9-15.2,2.3-21.7,15.2s-2.1,25.4,10.6,25.2c7.7-.1,15.4-4.7,19.6-10.8,1.8-2.6,2.1-5.4,1.7-6.2-.4-.9-1.2-.9-1.7-.1-4.3,6.6-11.6,14.6-19.9,14.2C162.45,68.4,160.05,62.1,163.25,52.9Zm.9-2.2c.2-.5.5-1.1.8-1.7,4.7-9.5,13-15.5,15.1-13.8,1.4,1.1-.8,6.3-4,10.5C173.15,49.5,169.05,53.8,164.15,50.7Zm31.1,2.2c7,5.7,13.7,3.1,18.6-2.9,4.2-5.1,5-11.2,3.2-13.6a18.607,18.607,0,0,0-5.9-5.2c-5-2.9-15.2,2.3-21.7,15.2s-2.1,25.4,10.6,25.2c7.7-.1,15.4-4.7,19.6-10.8,1.8-2.6,2.1-5.4,1.7-6.2-.4-.9-1.2-.9-1.7-.1-4.3,6.6-11.6,14.6-19.9,14.2C194.45,68.4,192.05,62.1,195.25,52.9Zm.9-2.2c.2-.5.5-1.1.8-1.7,4.7-9.5,13-15.5,15.1-13.8,1.4,1.1-.8,6.3-4,10.5C205.15,49.5,201.05,53.8,196.15,50.7Zm57.5-42.2c-7.5,11-17.5,30.8-21.5,41.5-2.2,6-1.2,9.3.3,10.9.8.8,1.2.6,1.7-.4,5.1-11.1,13.5-26.8,19-36.7,4.1-7.4,4.3-12.3,3-15.1C255.55,7.3,254.45,7.3,253.65,8.5Zm-22.5,56.3c-1.3-2.8-4.2-3.9-5.7-2.3a6.073,6.073,0,0,0-.5,7.3c1.4,2.3,4.3,2.9,5.5,1.4A6.445,6.445,0,0,0,231.15,64.8Z" transform="translate(-24.298 -7.624)" fill="#449bc9"/>
</svg>
